<svg width="23" height="22" viewBox="0 0 23 22" fill="none" xmlns="http://www.w3.org/2000/svg">
<path fill-rule="evenodd" clip-rule="evenodd" d="M11.8766 0.0957275L22.5828 5.89788C22.9686 6.10848 23.1127 6.59243 22.905 6.97853C22.6962 7.3657 22.213 7.50716 21.8273 7.30188L20.9604 6.83175L19.2373 19.053C19.0063 20.3708 17.848 21.2728 16.4153 21.2728H6.57905C5.14844 21.2728 3.98911 20.3719 3.76233 19.0795L2.03606 6.83388L1.1724 7.30188C1.05265 7.3657 0.922305 7.3976 0.795139 7.3976C0.513256 7.3976 0.23879 7.2455 0.0957293 6.9796C-0.113034 6.59137 0.0310868 6.10741 0.416822 5.89788L11.121 0.0957275C11.3573 -0.0319092 11.6402 -0.0319092 11.8766 0.0957275ZM16.4174 19.6773C16.9229 19.6773 17.5545 19.4476 17.6679 18.803L19.4694 6.02338L11.4982 1.70501L3.5292 6.02551L5.33283 18.8285C5.44198 19.4476 6.07251 19.6773 6.58117 19.6773H16.4174ZM11.4987 14.826C9.28921 14.826 7.49299 13.0221 7.49299 10.8055C7.49299 8.58887 9.28921 6.78494 11.4987 6.78494C13.7082 6.78494 15.5044 8.58887 15.5044 10.8055C15.5044 13.0221 13.7082 14.826 11.4987 14.826ZM11.4987 13.2306C12.8318 13.2306 13.9149 12.1436 13.9149 10.8055C13.9149 9.46744 12.8318 8.3804 11.4987 8.3804C10.1656 8.3804 9.08256 9.46744 9.08256 10.8055C9.08256 12.1436 10.1656 13.2306 11.4987 13.2306Z" fill="white"/>
</svg>
